<?xml version="1.0" encoding="iso-8859-1"?>
<!-- Uploaded to: SVG Repo, www.svgrepo.com, Generator: SVG Repo Mixer Tools -->
<svg version="1.1" id="Layer_1" xmlns="http://www.w3.org/2000/svg" xmlns:xlink="http://www.w3.org/1999/xlink" 
	 viewBox="0 0 512 512" xml:space="preserve">
<circle style="fill:#273B7A;" cx="256" cy="256" r="256"/>
<path style="fill:#121149;" d="M512,256c0-4.62-0.129-9.211-0.371-13.771L399.167,120.435l-41.839,118.057L246.172,120.435
	L137.235,267.883l-3.344,61.383l-18.623,62.298L227.33,510.392C236.744,511.443,246.306,512,256,512
	C397.384,512,512,397.384,512,256z"/>
<path style="fill:#D0D1D3;" d="M238.075,394.983H123.361c-6.244,0-11.307-5.061-11.307-11.307V128.324
	c0-6.244,5.061-11.307,11.307-11.307h114.716c6.244,0,11.307,5.061,11.307,11.307v255.352
	C249.382,389.92,244.321,394.983,238.075,394.983z"/>
<path style="fill:#A6A8AA;" d="M238.075,117.017h-58.501v277.964h58.501c6.244,0,11.307-5.061,11.307-11.307v-255.35
	C249.382,122.08,244.321,117.017,238.075,117.017z"/>
<rect x="126.121" y="133.154" style="fill:#FFFFFF;" width="109.192" height="245.708"/>
<rect x="179.579" y="133.154" style="fill:#D0D1D3;" width="55.751" height="245.708"/>
<g>
	<path style="fill:#808183;" d="M208.019,190.335h-54.601c-1.427,0-2.586-1.158-2.586-2.586s1.158-2.586,2.586-2.586h54.601
		c1.427,0,2.586,1.158,2.586,2.586S209.446,190.335,208.019,190.335z"/>
	<path style="fill:#808183;" d="M208.019,203.985h-54.601c-1.427,0-2.586-1.158-2.586-2.586c0-1.427,1.158-2.586,2.586-2.586h54.601
		c1.427,0,2.586,1.158,2.586,2.586C210.604,202.826,209.446,203.985,208.019,203.985z"/>
	<path style="fill:#808183;" d="M208.019,176.685h-54.601c-1.427,0-2.586-1.158-2.586-2.586s1.158-2.586,2.586-2.586h54.601
		c1.427,0,2.586,1.158,2.586,2.586S209.446,176.685,208.019,176.685z"/>
</g>
<g>
	<path style="fill:#59595B;" d="M208.019,185.163h-28.444v5.172h28.444c1.427,0,2.586-1.158,2.586-2.586
		S209.446,185.163,208.019,185.163z"/>
	<path style="fill:#59595B;" d="M208.019,198.813h-28.444v5.172h28.444c1.427,0,2.586-1.158,2.586-2.586
		C210.604,199.971,209.446,198.813,208.019,198.813z"/>
	<path style="fill:#59595B;" d="M208.019,171.513h-28.444v5.172h28.444c1.427,0,2.586-1.158,2.586-2.586
		S209.446,171.513,208.019,171.513z"/>
	<path style="fill:#59595B;" d="M216.292,272.375c-3.332,0-6.034-2.701-6.034-6.034V239.04c0-3.332,2.701-6.034,6.034-6.034
		c3.332,0,6.034,2.701,6.034,6.034v27.302C222.325,269.674,219.622,272.375,216.292,272.375z"/>
</g>
<path style="fill:#D0D1D3;" d="M391.071,394.983H276.356c-6.244,0-11.307-5.061-11.307-11.307V128.324
	c0-6.244,5.061-11.307,11.307-11.307h114.716c6.244,0,11.307,5.061,11.307,11.307v255.352
	C402.379,389.92,397.317,394.983,391.071,394.983z"/>
<path style="fill:#A6A8AA;" d="M391.071,117.017h-58.501v277.964h58.501c6.244,0,11.307-5.061,11.307-11.307v-255.35
	C402.379,122.08,397.317,117.017,391.071,117.017z"/>
<rect x="279.118" y="133.154" style="fill:#FFFFFF;" width="109.192" height="245.708"/>
<rect x="332.576" y="133.154" style="fill:#D0D1D3;" width="55.751" height="245.708"/>
<g>
	<path style="fill:#808183;" d="M361.015,190.335h-54.601c-1.427,0-2.586-1.158-2.586-2.586s1.158-2.586,2.586-2.586h54.601
		c1.427,0,2.586,1.158,2.586,2.586S362.443,190.335,361.015,190.335z"/>
	<path style="fill:#808183;" d="M361.015,203.985h-54.601c-1.427,0-2.586-1.158-2.586-2.586c0-1.427,1.158-2.586,2.586-2.586h54.601
		c1.427,0,2.586,1.158,2.586,2.586C363.601,202.826,362.443,203.985,361.015,203.985z"/>
	<path style="fill:#808183;" d="M361.015,176.685h-54.601c-1.427,0-2.586-1.158-2.586-2.586s1.158-2.586,2.586-2.586h54.601
		c1.427,0,2.586,1.158,2.586,2.586S362.443,176.685,361.015,176.685z"/>
</g>
<g>
	<path style="fill:#59595B;" d="M361.015,185.163h-28.444v5.172h28.444c1.427,0,2.586-1.158,2.586-2.586
		S362.443,185.163,361.015,185.163z"/>
	<path style="fill:#59595B;" d="M361.015,198.813h-28.444v5.172h28.444c1.427,0,2.586-1.158,2.586-2.586
		C363.601,199.971,362.443,198.813,361.015,198.813z"/>
	<path style="fill:#59595B;" d="M361.015,171.513h-28.444v5.172h28.444c1.427,0,2.586-1.158,2.586-2.586
		S362.443,171.513,361.015,171.513z"/>
	<path style="fill:#59595B;" d="M369.288,272.375c-3.332,0-6.034-2.701-6.034-6.034V239.04c0-3.332,2.701-6.034,6.034-6.034
		s6.034,2.701,6.034,6.034v27.302C375.322,269.674,372.619,272.375,369.288,272.375z"/>
</g>
</svg>