<?xml version="1.0" encoding="iso-8859-1"?>
<!-- Uploaded to: SVG Repo, www.svgrepo.com, Generator: SVG Repo Mixer Tools -->
<svg height="800px" width="800px" version="1.1" id="Layer_1" xmlns="http://www.w3.org/2000/svg" xmlns:xlink="http://www.w3.org/1999/xlink" 
	 viewBox="0 0 512 512" xml:space="preserve">
<circle style="fill:#FF314F;" cx="256" cy="256" r="256"/>
<path style="fill:#A30F44;" d="M510.576,283.076l-172.12-172.12l-140.912-4.948l-25.872,25.871v153.898L111.159,395.3
	l114.953,114.953C235.918,511.395,245.888,512,256,512C388.239,512,497.05,411.731,510.576,283.076z"/>
<g>
	<path style="fill:#D0D1D3;" d="M389.93,202.474h-35.668v-56.76c0-25.484-20.732-46.22-46.218-46.22h-97.051
		c-25.484,0-46.22,20.733-46.22,46.22v41.7c0,3.332,2.701,6.034,6.034,6.034s6.034-2.701,6.034-6.034v-41.7
		c0-18.832,15.32-34.152,34.152-34.152h97.051c18.83,0,34.151,15.32,34.151,34.152v199.268c0,3.332,2.701,6.034,6.034,6.034
		s6.034-2.701,6.034-6.034V214.542h35.668c18.83,0,34.151,15.32,34.151,34.151v96.29c0,3.332,2.701,6.034,6.034,6.034
		s6.034-2.701,6.034-6.034v-96.29C436.148,223.208,415.416,202.474,389.93,202.474z"/>
	<path style="fill:#D0D1D3;" d="M363.944,311.655c-3.332,0-6.034,2.701-6.034,6.034v27.295c0,3.332,2.701,6.034,6.034,6.034
		s6.034-2.701,6.034-6.034v-27.295C369.978,314.358,367.276,311.655,363.944,311.655z"/>
	<path style="fill:#D0D1D3;" d="M415.225,311.655c-3.332,0-6.034,2.701-6.034,6.034v27.295c0,3.332,2.701,6.034,6.034,6.034
		s6.034-2.701,6.034-6.034v-27.295C421.259,314.358,418.557,311.655,415.225,311.655z"/>
</g>
<path style="fill:#FFFFFF;" d="M217.679,399.574h-93.737c-11.802,0-21.37-9.568-21.37-21.37V202.581
	c0-11.802,9.568-21.37,21.37-21.37h93.737c11.802,0,21.37,9.568,21.37,21.37v175.623
	C239.049,390.006,229.481,399.574,217.679,399.574z"/>
<path style="fill:#D0D1D3;" d="M217.679,181.212H170.38v218.362h47.299c11.802,0,21.37-9.568,21.37-21.37V202.581
	C239.049,190.779,229.481,181.212,217.679,181.212z"/>
<path style="fill:#59595B;" d="M220.851,278.4H120.768c-2.512,0-4.549-2.036-4.549-4.549v-72.788c0-2.512,2.036-4.549,4.549-4.549
	h100.083c2.512,0,4.549,2.036,4.549,4.549v72.788C225.401,276.363,223.365,278.4,220.851,278.4z"/>
<path style="fill:#272525;" d="M220.851,196.515H170.38V278.4h50.473c2.512,0,4.549-2.036,4.549-4.549v-72.788
	C225.401,198.551,223.365,196.515,220.851,196.515z"/>
<path style="fill:#D0D1D3;" d="M170.81,288.739c-27.408,0-49.628,22.219-49.628,49.628c0,27.408,22.219,49.628,49.628,49.628
	s49.628-22.219,49.628-49.628C220.438,310.958,198.218,288.739,170.81,288.739z M170.81,355.53c-9.478,0-17.163-7.683-17.163-17.163
	c0-9.478,7.683-17.163,17.163-17.163c9.48,0,17.163,7.683,17.163,17.163C187.973,347.846,180.29,355.53,170.81,355.53z"/>
<path style="fill:#A6A8AA;" d="M170.81,288.739c-0.145,0-0.286,0.009-0.431,0.01v32.475c0.145-0.003,0.284-0.022,0.431-0.022
	c9.48,0,17.163,7.683,17.163,17.163c0,9.478-7.683,17.163-17.163,17.163c-0.145,0-0.286-0.017-0.431-0.022v32.475
	c0.143,0.002,0.286,0.01,0.431,0.01c27.408,0,49.628-22.219,49.628-49.628S198.218,288.739,170.81,288.739z"/>
</svg>