<?xml version="1.0" encoding="iso-8859-1"?>
<!-- Uploaded to: SVG Repo, www.svgrepo.com, Generator: SVG Repo Mixer Tools -->
<svg version="1.1" id="Layer_1" xmlns="http://www.w3.org/2000/svg" xmlns:xlink="http://www.w3.org/1999/xlink" 
	 viewBox="0 0 512 512" xml:space="preserve">
<circle style="fill:#273B7A;" cx="256" cy="256" r="256"/>
<g>
	<path style="fill:#121149;" d="M316.969,504.675l-107.18-105.893l-4.998,15.777l93.88,93.88
		C304.849,507.402,310.951,506.146,316.969,504.675z"/>
	<path style="fill:#121149;" d="M262.896,64.646l-7.737,88.76l-6.054,3.468l-59.452,29.217l40.496,43.777l-4.491,22.976
		l31.516,31.516l-1.176,2.176l44.87,44.87l-2.655,4.16l-73.633-72.68l-3.136,23.635l83.547,83.546l-2.929,3.862l-42.175-42.175
		l-0.726,1.51l-37.392-36.016l-5.146,22.338l43.122,45.735l-3.777,6.153l-41-41l-2.593,23.361l46.789,46.789l-3.77,5.906
		l-41.175-41.205l-6.054,22.185l115.447,115.447c92.05-25.147,163.421-100.364,183.01-194.577L262.896,64.646z"/>
</g>
<g>
	<rect x="249.104" y="64.646" style="fill:#D0D1D3;" width="13.791" height="75.852"/>
	<rect x="249.104" y="64.646" style="fill:#D0D1D3;" width="6.322" height="75.852"/>
</g>
<rect x="255.431" y="64.646" style="fill:#A6A8AA;" width="7.47" height="75.852"/>
<g>
	<path style="fill:#FFFFFF;" d="M306.567,177.274H205.431v-9.194c0-27.927,22.64-50.567,50.567-50.567l0,0
		c27.927,0,50.567,22.64,50.567,50.567v9.194H306.567z"/>
	<path style="fill:#FFFFFF;" d="M205.433,168.081v9.194h49.993v-59.747C227.764,117.836,205.433,140.345,205.433,168.081z"/>
</g>
<g>
	<path style="fill:#D0D1D3;" d="M306.567,168.081c0-27.927-22.64-50.567-50.567-50.567c-0.193,0-0.383,0.012-0.574,0.014v59.747
		h51.141L306.567,168.081L306.567,168.081z"/>
	<path style="fill:#D0D1D3;" d="M312.315,191.066H199.687c-6.982,0-12.641-5.66-12.641-12.641l0,0
		c0-6.982,5.66-12.641,12.641-12.641h112.628c6.982,0,12.641,5.66,12.641,12.641l0,0
		C324.956,185.406,319.297,191.066,312.315,191.066z"/>
	<path style="fill:#D0D1D3;" d="M199.685,165.783c-6.982,0-12.641,5.66-12.641,12.641s5.66,12.641,12.641,12.641h55.741v-25.283
		H199.685z"/>
</g>
<path style="fill:#A6A8AA;" d="M312.315,165.783h-56.889v25.285h56.889c6.982,0,12.641-5.66,12.641-12.641
	S319.297,165.783,312.315,165.783z"/>
<g>
	<path style="fill:#71E2EF;" d="M256,219.224c-2.857,0-5.172-2.315-5.172-5.172v-6.896c0-2.857,2.315-5.172,5.172-5.172
		s5.172,2.315,5.172,5.172v6.896C261.172,216.909,258.857,219.224,256,219.224z"/>
	<path style="fill:#71E2EF;" d="M256,387.508c-2.857,0-5.172-2.315-5.172-5.172v-13.462c0-2.857,2.315-5.172,5.172-5.172
		s5.172,2.315,5.172,5.172v13.462C261.172,385.193,258.857,387.508,256,387.508z M256,353.852c-2.857,0-5.172-2.315-5.172-5.172
		v-13.464c0-2.857,2.315-5.172,5.172-5.172s5.172,2.315,5.172,5.172v13.464C261.172,351.537,258.857,353.852,256,353.852z
		 M256,320.195c-2.857,0-5.172-2.315-5.172-5.172v-13.464c0-2.857,2.315-5.172,5.172-5.172s5.172,2.315,5.172,5.172v13.464
		C261.172,317.881,258.857,320.195,256,320.195z M256,286.537c-2.857,0-5.172-2.315-5.172-5.172v-13.464
		c0-2.857,2.315-5.172,5.172-5.172s5.172,2.315,5.172,5.172v13.464C261.172,284.222,258.857,286.537,256,286.537z M256,252.88
		c-2.857,0-5.172-2.315-5.172-5.172v-13.464c0-2.857,2.315-5.172,5.172-5.172s5.172,2.315,5.172,5.172v13.464
		C261.172,250.566,258.857,252.88,256,252.88z"/>
	<path style="fill:#71E2EF;" d="M256,414.599c-2.857,0-5.172-2.315-5.172-5.172v-6.896c0-2.857,2.315-5.172,5.172-5.172
		s5.172,2.315,5.172,5.172v6.896C261.172,412.284,258.857,414.599,256,414.599z"/>
</g>
<g>
	<path style="fill:#02B2B2;" d="M256,201.985c-0.197,0-0.383,0.036-0.574,0.059v17.124c0.191,0.021,0.378,0.059,0.574,0.059
		c2.857,0,5.172-2.315,5.172-5.172v-6.896C261.172,204.3,258.857,201.985,256,201.985z"/>
	<path style="fill:#02B2B2;" d="M256,387.508c2.857,0,5.172-2.315,5.172-5.172v-13.462c0-2.857-2.315-5.172-5.172-5.172
		c-0.197,0-0.383,0.036-0.574,0.059v23.688C255.617,387.472,255.803,387.508,256,387.508z"/>
	<path style="fill:#02B2B2;" d="M256,353.852c2.857,0,5.172-2.315,5.172-5.172v-13.464c0-2.857-2.315-5.172-5.172-5.172
		c-0.197,0-0.383,0.036-0.574,0.059v23.69C255.617,353.814,255.803,353.852,256,353.852z"/>
	<path style="fill:#02B2B2;" d="M256,320.195c2.857,0,5.172-2.315,5.172-5.172v-13.464c0-2.857-2.315-5.172-5.172-5.172
		c-0.197,0-0.383,0.036-0.574,0.059v23.69C255.617,320.159,255.803,320.195,256,320.195z"/>
	<path style="fill:#02B2B2;" d="M256,286.537c2.857,0,5.172-2.315,5.172-5.172v-13.464c0-2.857-2.315-5.172-5.172-5.172
		c-0.197,0-0.383,0.036-0.574,0.059v23.69C255.617,286.501,255.803,286.537,256,286.537z"/>
	<path style="fill:#02B2B2;" d="M261.172,247.708v-13.464c0-2.857-2.315-5.172-5.172-5.172c-0.197,0-0.383,0.036-0.574,0.059v23.69
		c0.191,0.021,0.378,0.059,0.574,0.059C258.857,252.88,261.172,250.566,261.172,247.708z"/>
	<path style="fill:#02B2B2;" d="M256,397.36c-0.197,0-0.383,0.036-0.574,0.059v17.124c0.191,0.021,0.378,0.059,0.574,0.059
		c2.857,0,5.172-2.315,5.172-5.172v-6.896C261.172,399.675,258.857,397.36,256,397.36z"/>
</g>
<g>
	<path style="fill:#71E2EF;" d="M229.867,219.17c-0.214,0-0.431-0.014-0.648-0.04c-2.836-0.353-4.846-2.939-4.489-5.773l0.855-6.842
		c0.353-2.834,2.941-4.851,5.773-4.489c2.836,0.353,4.846,2.939,4.489,5.773l-0.855,6.842
		C234.665,217.255,232.438,219.17,229.867,219.17z"/>
	<path style="fill:#71E2EF;" d="M208.82,387.551c-0.214,0-0.431-0.014-0.648-0.04c-2.836-0.353-4.846-2.938-4.489-5.773
		l1.684-13.469c0.353-2.836,2.944-4.841,5.773-4.489c2.836,0.353,4.846,2.938,4.489,5.773l-1.684,13.469
		C213.618,385.636,211.39,387.551,208.82,387.551z M213.03,353.875c-0.214,0-0.431-0.014-0.648-0.04
		c-2.834-0.353-4.846-2.938-4.489-5.773l1.684-13.471c0.353-2.836,2.944-4.841,5.773-4.489c2.834,0.353,4.846,2.938,4.489,5.773
		l-1.684,13.471C217.828,351.961,215.6,353.875,213.03,353.875z M217.24,320.198c-0.214,0-0.431-0.014-0.648-0.04
		c-2.834-0.353-4.846-2.938-4.489-5.773l1.684-13.471c0.353-2.836,2.944-4.841,5.773-4.489c2.834,0.353,4.846,2.938,4.489,5.773
		l-1.684,13.471C222.037,318.285,219.81,320.198,217.24,320.198z M221.448,286.522c-0.214,0-0.431-0.014-0.648-0.04
		c-2.836-0.353-4.846-2.939-4.489-5.773l1.686-13.469c0.353-2.836,2.948-4.832,5.773-4.489c2.836,0.353,4.846,2.939,4.489,5.773
		l-1.686,13.469C226.245,284.608,224.016,286.522,221.448,286.522z M225.658,252.845c-0.214,0-0.431-0.014-0.648-0.04
		c-2.836-0.353-4.846-2.938-4.489-5.773l1.684-13.469c0.353-2.836,2.944-4.844,5.773-4.489c2.836,0.353,4.846,2.938,4.489,5.773
		l-1.684,13.469C230.457,250.932,228.23,252.845,225.658,252.845z"/>
	<path style="fill:#71E2EF;" d="M205.44,414.599c-0.214,0-0.431-0.014-0.648-0.04c-2.836-0.353-4.846-2.939-4.489-5.773l0.855-6.842
		c0.353-2.836,2.944-4.839,5.773-4.489c2.836,0.353,4.846,2.939,4.489,5.773l-0.855,6.842
		C210.237,412.686,208.01,414.599,205.44,414.599z"/>
</g>
<g>
	<path style="fill:#02B2B2;" d="M282.133,219.17c-2.57,0-4.798-1.914-5.125-4.53l-0.855-6.842c-0.355-2.834,1.655-5.42,4.489-5.773
		c2.829-0.36,5.42,1.657,5.773,4.489l0.855,6.842c0.355,2.834-1.655,5.42-4.489,5.773
		C282.564,219.157,282.346,219.17,282.133,219.17z"/>
	<path style="fill:#02B2B2;" d="M303.18,387.551c-2.57,0-4.798-1.914-5.125-4.53l-1.684-13.469c-0.355-2.836,1.655-5.42,4.489-5.773
		c2.826-0.348,5.42,1.655,5.773,4.489l1.684,13.469c0.355,2.836-1.655,5.42-4.489,5.773
		C303.611,387.537,303.394,387.551,303.18,387.551z M298.97,353.875c-2.57,0-4.798-1.914-5.125-4.53l-1.684-13.471
		c-0.355-2.836,1.657-5.42,4.489-5.773c2.826-0.348,5.42,1.655,5.773,4.489l1.684,13.471c0.355,2.836-1.657,5.42-4.489,5.773
		C299.401,353.863,299.184,353.875,298.97,353.875z M294.76,320.198c-2.57,0-4.798-1.914-5.125-4.53l-1.684-13.471
		c-0.355-2.836,1.657-5.42,4.489-5.773c2.826-0.348,5.42,1.655,5.773,4.489l1.684,13.471c0.355,2.836-1.657,5.42-4.489,5.773
		C295.191,320.184,294.974,320.198,294.76,320.198z M290.552,286.522c-2.57,0-4.798-1.914-5.125-4.53l-1.686-13.469
		c-0.355-2.834,1.655-5.42,4.489-5.773c2.826-0.35,5.42,1.655,5.773,4.489l1.686,13.469c0.355,2.834-1.655,5.42-4.489,5.773
		C290.983,286.508,290.766,286.522,290.552,286.522z M286.342,252.845c-2.57,0-4.798-1.914-5.125-4.53l-1.684-13.469
		c-0.355-2.836,1.655-5.42,4.489-5.773c2.826-0.352,5.42,1.655,5.773,4.489l1.684,13.469c0.355,2.836-1.655,5.42-4.489,5.773
		C286.773,252.831,286.556,252.845,286.342,252.845z"/>
	<path style="fill:#02B2B2;" d="M306.56,414.599c-2.57,0-4.798-1.914-5.125-4.53l-0.855-6.842c-0.355-2.834,1.655-5.42,4.489-5.773
		c2.826-0.346,5.42,1.655,5.773,4.489l0.855,6.842c0.355,2.834-1.655,5.42-4.489,5.773
		C306.991,414.586,306.774,414.599,306.56,414.599z"/>
</g>
</svg>